HIERARCHY
ROOT Hips
{
	OFFSET 0.000000 0.000000 0.000000
	CHANNELS 6 Xposition Yposition Zposition Zrotation Yrotation Xrotation 
	JOINT LHipJoint
	{
		OFFSET 0.000000 0.000000 0.000000
		CHANNELS 3 Zrotation Yrotation Xrotation
		JOINT LeftUpLeg
		{
			OFFSET 1.363060 -1.794630 0.839290
			CHANNELS 3 Zrotation Yrotation Xrotation
			JOINT LeftLeg
			{
				OFFSET 2.448110 -6.726130 0.000000
				CHANNELS 3 Zrotation Yrotation Xrotation
				JOINT LeftFoot
				{
					OFFSET 2.562200 -7.039590 0.000000
					CHANNELS 3 Zrotation Yrotation Xrotation
					JOINT LeftToeBase
					{
						OFFSET 0.157640 -0.433110 2.322550
						CHANNELS 3 Zrotation Yrotation Xrotation
						End Site
						{
							OFFSET 0.000000 0.000000 0.000000
						}
					}
				}
			}
		}
	}
	JOINT RHipJoint
	{
		OFFSET 0.000000 0.000000 0.000000
		CHANNELS 3 Zrotation Yrotation Xrotation
		JOINT RightUpLeg
		{
			OFFSET -1.305520 -1.794630 0.839290
			CHANNELS 3 Zrotation Yrotation Xrotation
			JOINT RightLeg
			{
				OFFSET -2.542530 -6.985550 0.000000
				CHANNELS 3 Zrotation Yrotation Xrotation
				JOINT RightFoot
				{
					OFFSET -2.568260 -7.056230 0.000000
					CHANNELS 3 Zrotation Yrotation Xrotation
					JOINT RightToeBase
					{
						OFFSET -0.164730 -0.452590 2.363150
						CHANNELS 3 Zrotation Yrotation Xrotation
						End Site
						{
							OFFSET 0.000000 0.000000 0.000000
						}
					}
				}
			}
		}
	}
	JOINT LowerBack
	{
		OFFSET 0.000000 0.000000 0.000000
		CHANNELS 3 Zrotation Yrotation Xrotation
		JOINT Spine
		{
			OFFSET 0.028270 2.035590 -0.193380
			CHANNELS 3 Zrotation Yrotation Xrotation
			JOINT Spine1
			{
				OFFSET 0.056720 2.048850 -0.042750
				CHANNELS 3 Zrotation Yrotation Xrotation
				JOINT Neck
				{
					OFFSET 0.000000 0.000000 0.000000
					CHANNELS 3 Zrotation Yrotation Xrotation
					JOINT Neck1
					{
						OFFSET -0.054170 1.746240 0.172020
						CHANNELS 3 Zrotation Yrotation Xrotation
						JOINT Head
						{
							OFFSET 0.104070 1.761360 -0.123970
							CHANNELS 3 Zrotation Yrotation Xrotation
							End Site
							{
								OFFSET 0.000000 0.000000 0.000000
							}
						}
					}
				}
				JOINT LeftShoulder
				{
					OFFSET 0.000000 0.000000 0.000000
					CHANNELS 3 Zrotation Yrotation Xrotation
					JOINT LeftArm
					{
						OFFSET 3.362410 1.200890 -0.311210
						CHANNELS 3 Zrotation Yrotation Xrotation
						JOINT LeftForeArm
						{
							OFFSET 4.983000 -0.000000 -0.000000
							CHANNELS 3 Zrotation Yrotation Xrotation
							JOINT LeftHand
							{
								OFFSET 3.483560 -0.000000 -0.000000
								CHANNELS 3 Zrotation Yrotation Xrotation
								JOINT LeftFingerBase
								{
									OFFSET 0.000000 0.000000 0.000000
									CHANNELS 3 Zrotation Yrotation Xrotation
									JOINT LeftHandIndex1
									{
										OFFSET 0.715260 -0.000000 -0.000000
										CHANNELS 3 Zrotation Yrotation Xrotation
										End Site
										{
											OFFSET 0.000000 0.000000 0.000000
										}
									}
								}
								JOINT LThumb
								{
									OFFSET 0.000000 0.000000 0.000000
									CHANNELS 3 Zrotation Yrotation Xrotation
									End Site
									{
										OFFSET 0.000000 0.000000 0.000000
									}
								}
							}
						}
					}
				}
				JOINT RightShoulder
				{
					OFFSET 0.000000 0.000000 0.000000
					CHANNELS 3 Zrotation Yrotation Xrotation
					JOINT RightArm
					{
						OFFSET -3.136600 1.374050 -0.404650
						CHANNELS 3 Zrotation Yrotation Xrotation
						JOINT RightForeArm
						{
							OFFSET -5.241900 -0.000000 -0.000000
							CHANNELS 3 Zrotation Yrotation Xrotation
							JOINT RightHand
							{
								OFFSET -3.444170 -0.000000 -0.000000
								CHANNELS 3 Zrotation Yrotation Xrotation
								JOINT RightFingerBase
								{
									OFFSET 0.000000 0.000000 0.000000
									CHANNELS 3 Zrotation Yrotation Xrotation
									JOINT RightHandIndex1
									{
										OFFSET -0.622530 -0.000000 -0.000000
										CHANNELS 3 Zrotation Yrotation Xrotation
										End Site
										{
											OFFSET 0.000000 0.000000 0.000000
										}
									}
								}
								JOINT RThumb
								{
									OFFSET 0.000000 0.000000 0.000000
									CHANNELS 3 Zrotation Yrotation Xrotation
									End Site
									{
										OFFSET 0.000000 0.000000 0.000000
									}
								}
							}
						}
					}
				}
			}
		}
	}
}
MOTION
Frames: 5
Frame Time: 0.008333
26.564204 17.572087 2.136903 154.141831 -80.594805 -128.546110 -8.939156 -1.076983 4.320795 -8.167493 -6.903337 -64.901483 1.410001 3.338826 69.853709 2.332542 11.797037 -3.750362 1.174401 0.000000 -28.185100 12.313860 -4.575375 3.190729 -1.229586 -3.564267 -4.194032 1.145755 -0.363043 1.976437 0.295898 6.856961 23.757393 3.323600 -0.000001 -74.377100 -7.591110 3.125018 -9.090386 -1.863066 3.526544 -4.685793 -2.805805 3.208885 1.322575 3.254023 -6.757942 -10.101308 0.245336 0.051044 -0.602243 0.000000 0.000000 0.000000 4.959528 24.958351 2.832748 -39.352809 38.056389 -7.629132 -4.328991 -13.141928 0.014733 14.475219 -0.646984 -0.078521 -0.353565 -0.039296 -0.000000 0.000000 0.000000 0.000000 0.000000 0.000000 0.000000 -7.865186 -0.382953 -1.705723 20.616429 19.974302 -44.882424 0.597681 89.094908 -0.164178 -12.967252 10.704390 -1.317001 0.049708 -0.787661 -0.000000 0.000000 0.000000 0.000000 0.000000 0.000000 0.000000 
26.318343 17.715274 2.139518 151.657340 -80.775163 -126.280643 -8.708960 -0.797861 4.621238 -8.808316 -7.513587 -63.923909 1.204989 3.088871 66.568219 2.237739 11.372860 -2.147853 1.476800 -0.000000 -30.031300 12.647738 -4.716557 3.052790 -1.873989 -5.317154 -3.413988 1.084906 -0.390814 0.640640 0.170905 7.571343 27.243335 4.141200 -0.000000 -71.227899 -7.962085 3.213627 -9.345047 -1.932264 3.657952 -4.730722 -2.747992 3.331627 1.390209 3.065575 -6.865216 -9.954045 0.391284 0.060567 -0.552806 0.000000 0.000000 0.000000 5.679479 25.175499 2.833647 -38.862164 38.584180 -8.529870 -4.351342 -13.388753 0.008891 13.773346 -0.017657 0.002358 -0.360153 -0.033170 -0.000000 0.000000 0.000000 0.000000 0.000000 0.000000 0.000000 -8.729766 -0.637098 -1.932415 20.409489 19.802733 -47.138620 -179.263449 89.676644 179.821157 -13.934888 10.684018 -1.416167 0.059131 -0.802788 -0.000000 0.000000 0.000000 0.000000 0.000000 0.000000 0.000000 
26.074888 17.850041 2.144998 149.423507 -80.967630 -124.278459 -8.514132 -0.513960 4.918983 -9.339978 -8.062439 -62.863036 1.007754 2.853678 63.167431 2.119902 10.869104 -0.401007 1.772099 0.000000 -31.935800 12.925555 -4.826894 2.895407 -2.436139 -6.986224 -2.748230 1.031234 -0.414978 -0.126196 0.036728 7.888401 29.794513 4.664100 0.000000 -67.744000 -8.236806 3.292555 -9.561734 -1.976339 3.775439 -4.765265 -2.679704 3.442492 1.454225 2.832222 -6.972335 -9.808437 0.539706 0.070436 -0.505001 0.000000 0.000000 0.000000 6.383344 25.396541 2.849024 -38.547562 39.035623 -9.603435 -4.384846 -13.594104 0.002263 12.821760 0.716454 0.086324 -0.363823 -0.026992 -0.000000 0.000000 0.000000 0.000000 0.000000 0.000000 0.000000 -9.645349 -0.910322 -2.169862 20.230992 19.812676 -49.329318 -179.120779 88.581397 179.806269 -14.911814 10.609775 -1.509141 0.069128 -0.816528 -0.000000 0.000000 0.000000 0.000000 0.000000 0.000000 0.000000 
25.834506 17.975503 2.153334 147.467087 -81.180453 -122.555154 -8.358865 -0.234222 5.204821 -9.753761 -8.542883 -61.731553 0.814781 2.634173 59.672168 1.978196 10.275621 1.448393 2.038800 0.000000 -33.775599 13.138281 -4.917894 2.735572 -2.901775 -8.432792 -2.139152 0.970976 -0.440021 -0.383346 -0.100787 7.616694 31.451055 4.730700 -0.000000 -64.337600 -8.412641 3.365181 -9.745047 -1.994420 3.881455 -4.790263 -2.598952 3.543761 1.513193 2.551675 -7.080114 -9.671008 0.690556 0.080718 -0.460677 0.000000 0.000000 0.000000 7.051518 25.628117 2.877777 -38.383558 39.402690 -10.830618 -4.425668 -13.766504 -0.004658 11.688614 1.515316 0.162481 -0.364443 -0.020915 0.000000 0.000000 0.000000 0.000000 0.000000 0.000000 0.000000 -10.615179 -1.195523 -2.413836 20.067371 19.975431 -51.447706 -178.975795 87.596742 179.791618 -15.861509 10.488509 -1.591722 0.079280 -0.828912 -0.000000 0.000000 0.000000 0.000000 0.000000 0.000000 0.000000 
25.597586 18.090827 2.164003 145.730389 -81.406641 -121.053107 -8.235999 0.039092 5.472658 -10.072929 -8.965352 -60.526843 0.621170 2.428262 56.099418 1.817231 9.611051 3.340172 2.259200 -0.000000 -35.419599 13.295416 -4.991052 2.576623 -3.292943 -9.621867 -1.577549 0.894469 -0.473027 -0.114960 -0.236099 6.762135 32.241780 4.324800 -0.000000 -61.212700 -8.509732 3.433081 -9.891506 -1.990741 3.978039 -4.805576 -2.505042 3.637281 1.566129 2.228446 -7.189360 -9.548505 0.843428 0.091473 -0.421793 0.000000 0.000000 0.000000 7.665809 25.877559 2.918424 -38.333813 39.677425 -12.149527 -4.468484 -13.924344 -0.011366 10.461303 2.335012 0.222833 -0.362224 -0.015094 -0.000000 0.000000 0.000000 0.000000 0.000000 0.000000 0.000000 -11.632968 -1.485662 -2.659742 19.906785 20.257997 -53.485073 -178.828758 86.701337 179.777515 -16.762948 10.330561 -1.662008 0.089341 -0.839982 -0.000000 0.000000 0.000000 0.000000 0.000000 0.000000 0.000000 
